<?xml version="1.0" standalone="no"?>
<!DOCTYPE svg PUBLIC "-//W3C//DTD SVG 20010904//EN"
 "http://www.w3.org/TR/2001/REC-SVG-20010904/DTD/svg10.dtd">
<svg version="1.0" xmlns="http://www.w3.org/2000/svg"
 width="500.000000pt" height="500.000000pt" viewBox="0 0 500.000000 500.000000"
 preserveAspectRatio="xMidYMid meet">
<metadata>
Created by potrace 1.11, written by Peter Selinger 2001-2013
</metadata>
<g transform="translate(0.000000,500.000000) scale(0.100000,-0.100000)"
fill="#000000" stroke="none">
<path d="M7 4994 c-4 -4 -7 -1129 -7 -2501 l0 -2493 2500 0 2500 0 0 2500 0
2500 -1172 0 c-645 0 -1178 -4 -1184 -8 -6 -4 -13 -12 -15 -19 -3 -9 -9 -9
-19 -3 -13 9 -13 11 0 20 10 6 -331 10 -1012 10 -660 0 -1028 -4 -1028 -10 0
-6 -5 -10 -11 -10 -5 0 -7 5 -3 11 4 7 -2 6 -17 -1 -17 -10 -24 -10 -27 -1 -2
6 -8 11 -13 11 -6 0 -7 -4 -4 -10 9 -14 -8 -13 -23 2 -9 9 -12 9 -12 0 0 -8
-7 -9 -24 -2 -28 10 -419 14 -429 4z m2578 -34 c-6 -9 -9 -9 -16 1 -10 17 0
34 13 21 6 -6 7 -16 3 -22z m-31 -15 c3 -8 1 -15 -4 -15 -6 0 -10 7 -10 15 0
8 2 15 4 15 2 0 6 -7 10 -15z m-1732 -57 c-9 -9 -12 -7 -12 12 0 19 3 21 12
12 9 -9 9 -15 0 -24z m-267 -68 c3 -5 1 -10 -4 -10 -6 0 -11 5 -11 10 0 6 2
10 4 10 3 0 8 -4 11 -10z m692 -55 c0 -33 -4 -45 -15 -45 -10 0 -13 7 -8 23 3
12 6 32 6 45 0 12 4 22 8 22 5 0 9 -20 9 -45z m-1104 -38 c3 -8 -1 -14 -9 -14
-15 0 -18 9 -7 20 9 9 10 9 16 -6z m464 -19 c-3 -8 -6 -5 -6 6 -1 11 2 17 5
13 3 -3 4 -12 1 -19z m643 -13 c0 -8 -4 -15 -9 -15 -5 0 -11 7 -15 15 -3 9 0
15 9 15 8 0 15 -7 15 -15z m-1010 -29 c0 -3 -4 -8 -10 -11 -5 -3 -10 -1 -10 4
0 6 5 11 10 11 6 0 10 -2 10 -4z m1770 -212 c0 -27 -4 -43 -10 -39 -5 3 -10
24 -10 46 0 21 5 39 10 39 6 0 10 -21 10 -46z m41 29 c1 -10 1 -24 0 -30 -1
-7 5 -13 14 -13 8 0 15 -7 15 -16 0 -10 -7 -14 -22 -12 -19 2 -24 10 -26 46
-2 25 1 42 7 42 6 0 12 -8 12 -17z m117 5 c18 -18 14 -56 -7 -68 -29 -15 -39
-13 -56 14 -13 19 -14 29 -5 45 12 23 49 28 68 9z m53 -19 l6 -24 8 28 c10 39
28 34 20 -5 -9 -39 -25 -62 -36 -51 -4 4 -12 25 -17 46 -8 28 -8 37 1 34 6 -2
14 -14 18 -28z m104 21 c3 -5 -2 -10 -12 -10 -15 0 -16 -2 -3 -10 12 -8 13
-12 2 -19 -11 -7 -10 -9 3 -15 21 -8 10 -26 -16 -26 -16 0 -19 7 -19 45 0 38
3 45 19 45 11 0 23 -4 26 -10z m52 -6 c5 -15 7 -15 15 0 15 26 26 18 31 -21 5
-47 -1 -60 -19 -36 -9 13 -13 14 -14 4 0 -11 -3 -11 -15 -1 -12 10 -15 10 -15
-4 0 -9 -4 -16 -10 -16 -12 0 -13 15 -4 59 7 34 21 41 31 15z m129 -29 c7 -22
14 -40 14 -40 0 -1 -18 -1 -40 0 -22 0 -40 2 -40 4 0 2 5 21 12 43 14 49 35
46 54 -7z m52 33 c9 -9 12 -9 12 0 0 7 7 12 15 12 12 0 13 -4 6 -18 -5 -9 -7
-31 -4 -47 l5 -30 -21 25 -21 25 0 -23 c0 -13 -4 -20 -10 -17 -12 7 -14 85 -2
85 4 0 13 -5 20 -12z m132 -9 c9 -16 8 -26 -5 -45 -17 -27 -27 -29 -56 -14
-21 12 -25 50 -7 68 19 19 56 14 68 -9z m60 4 c0 32 17 17 23 -20 8 -46 3 -51
-23 -28 -17 16 -20 16 -20 2 0 -9 -4 -19 -10 -22 -6 -4 -10 12 -10 41 0 46 0
47 20 29 18 -16 20 -16 20 -2z m66 2 c4 -8 10 -15 15 -15 5 0 9 7 9 15 0 8 5
15 10 15 6 0 10 -21 10 -47 l0 -46 -25 23 -25 23 0 -22 c0 -12 -4 -19 -10 -16
-13 8 -13 85 0 85 6 0 13 -7 16 -15z m114 5 c0 -5 -8 -10 -17 -10 -15 0 -16
-2 -3 -10 12 -8 13 -12 2 -19 -11 -6 -10 -10 4 -15 20 -8 12 -19 -16 -23 -17
-2 -20 3 -20 42 0 41 2 45 25 45 14 0 25 -4 25 -10z m36 -5 c4 -8 10 -15 15
-15 5 0 9 7 9 15 0 8 5 15 10 15 6 0 10 -18 10 -40 0 -38 -12 -52 -25 -30 -9
15 -25 12 -25 -6 0 -8 -4 -12 -10 -9 -13 8 -13 85 0 85 6 0 13 -7 16 -15z
m-1764 -268 c3 -13 1 -32 -3 -43 -5 -13 -8 -7 -8 24 -1 46 4 55 11 19z m1355
-196 c18 -30 40 -77 49 -105 23 -71 66 -135 119 -176 46 -36 55 -54 31 -63
-17 -7 -91 42 -128 85 -31 37 -32 36 -19 -8 8 -28 7 -31 -12 -30 -11 1 -22 8
-24 16 -4 13 -3 13 6 0 6 -8 11 -11 11 -7 0 5 -8 21 -19 35 -33 49 -50 129
-28 143 14 10 0 73 -22 101 l-19 23 -25 -27 c-23 -25 -24 -28 -8 -42 10 -9 21
-13 24 -9 4 3 7 -2 7 -11 0 -14 -6 -17 -25 -14 -21 4 -26 0 -39 -39 -8 -24
-11 -41 -6 -38 5 3 11 1 15 -5 3 -5 1 -10 -5 -10 -6 0 -8 -5 -5 -10 4 -6 2
-16 -3 -23 -5 -7 -13 -31 -17 -55 -4 -24 -13 -46 -21 -49 -21 -8 -27 2 -15 25
20 38 0 28 -60 -30 -34 -32 -65 -58 -70 -58 -5 0 -9 -10 -9 -22 0 -22 -1 -22
-14 3 -16 31 -14 85 4 102 9 9 11 9 6 0 -3 -6 -2 -14 4 -18 5 -3 10 1 10 9 0
9 3 15 8 15 22 -4 34 5 66 47 19 25 47 78 62 117 15 40 33 79 40 87 12 14 14
20 14 38 0 16 53 63 68 60 10 -2 31 -28 49 -57z m-489 23 c37 -15 85 -36 107
-47 22 -12 43 -20 48 -19 4 1 7 -1 8 -6 0 -4 2 -17 3 -29 1 -12 -1 -20 -6 -17
-4 3 -8 -2 -8 -11 0 -13 -7 -11 -33 12 -18 16 -49 35 -68 42 -18 7 -55 24 -80
37 -58 30 -109 32 -109 5 0 -19 42 -71 58 -71 5 0 10 -31 10 -68 1 -37 5 -79
10 -92 20 -53 -8 -120 -34 -85 -14 19 -25 19 -18 0 4 -8 2 -15 -2 -15 -13 0
-47 88 -47 119 0 15 3 39 7 55 4 16 3 25 -2 22 -5 -3 -8 6 -6 20 1 14 -4 45
-12 69 -14 39 -14 47 1 74 14 28 20 31 61 31 26 0 75 -11 112 -26z m1026 10
c21 -21 20 -80 -1 -102 -14 -14 -19 -38 -21 -117 -1 -54 -6 -103 -10 -107 -5
-5 -17 -6 -27 -2 -16 6 -17 16 -11 85 3 42 2 88 -3 102 -8 21 -7 24 8 20 14
-3 22 7 36 42 20 55 12 67 -39 55 -37 -8 -200 -89 -204 -101 -6 -15 -39 -10
-46 6 -7 20 62 66 155 104 83 34 140 39 163 15z m-1077 -166 c-3 -7 -5 -2 -5
12 0 14 2 19 5 13 2 -7 2 -19 0 -25z m124 1 c18 -13 29 -29 28 -42 -1 -17 -2
-18 -6 -4 -5 18 -23 24 -23 7 0 -5 -9 -10 -20 -10 -16 0 -20 7 -20 35 0 41 2
42 41 14z m92 -46 c-7 -2 -13 -19 -13 -36 0 -21 -3 -27 -8 -19 -7 10 -8 43 -3
60 1 1 9 2 19 1 10 0 12 -3 5 -6z m-173 -91 c0 -13 -12 -22 -22 -16 -10 6 -1
24 13 24 5 0 9 -4 9 -8z m-304 -38 c44 -15 85 -31 92 -36 8 -7 18 -6 30 3 9 7
14 9 10 5 -5 -5 2 -16 13 -24 18 -12 23 -12 30 -1 8 13 10 11 25 -40 2 -7 11
-10 20 -7 8 3 12 2 9 -4 -3 -5 11 -21 31 -37 20 -15 48 -40 64 -55 15 -15 30
-24 34 -21 3 4 6 1 6 -6 0 -6 17 -30 37 -52 27 -29 39 -36 45 -27 7 10 8 9 6
-3 -2 -8 21 -39 49 -67 29 -29 51 -52 49 -52 -3 0 8 -13 22 -28 64 -68 124
-153 118 -168 -4 -11 -12 -14 -24 -9 -9 4 -24 8 -32 9 -8 2 -15 10 -15 19 0 9
-15 30 -32 46 -32 29 -60 32 -89 9 -6 -4 -35 -10 -64 -13 -29 -2 -54 -6 -57
-8 -6 -7 57 -64 86 -78 56 -28 91 -71 97 -121 4 -26 11 -48 17 -48 6 0 3 -6
-7 -13 -15 -11 -16 -20 -6 -82 18 -122 42 -215 57 -230 8 -8 11 -15 6 -15 -4
0 -6 -29 -5 -65 4 -68 -8 -98 -34 -88 -8 3 -14 17 -14 32 0 31 -9 45 -32 49
-10 2 -17 -4 -17 -15 -1 -44 -7 -70 -24 -100 -19 -36 -30 -39 -67 -18 -35 20
-58 18 -65 -5 -4 -11 -9 -18 -13 -16 -4 2 -7 -6 -7 -19 0 -13 2 -22 4 -20 5 5
92 -43 111 -61 23 -23 -4 -16 -29 7 -12 12 -25 19 -27 16 -5 -4 28 -30 65 -52
10 -5 12 -4 7 3 -4 7 -2 12 4 12 6 0 14 8 17 17 15 38 42 53 106 61 32 4 42 0
67 -27 30 -31 30 -32 27 -134 -3 -99 -2 -104 21 -121 21 -17 25 -17 39 -3 9 8
17 30 19 48 2 18 6 34 8 36 2 3 0 20 -6 40 -15 57 -17 73 -9 73 5 0 11 9 14
19 7 27 52 54 90 53 68 0 77 -3 97 -24 20 -22 21 -36 7 -88 -2 -8 -2 -12 0 -7
3 4 10 4 15 0 7 -4 9 1 6 15 -3 12 -3 20 1 19 3 -1 29 22 58 51 28 28 47 52
42 52 -5 0 -9 14 -9 30 0 34 -1 34 -47 18 -30 -11 -35 -10 -62 16 -17 16 -30
32 -29 35 0 3 -1 9 -2 14 -4 11 -7 26 -9 37 -2 17 -31 -1 -31 -20 0 -21 -21
-32 -39 -20 -13 8 -24 180 -11 180 4 0 7 6 8 13 1 19 10 56 16 66 11 17 38
167 42 236 7 99 17 118 77 151 30 16 46 29 37 32 -7 3 6 12 30 21 23 9 50 27
59 41 9 14 11 21 4 16 -8 -4 -13 -2 -13 6 0 10 -2 10 -9 0 -4 -8 -11 -13 -15
-13 -3 1 -17 -1 -29 -5 -40 -9 -92 9 -91 33 l0 21 -35 -20 c-20 -11 -57 -40
-83 -65 -42 -41 -68 -49 -68 -22 0 14 105 140 178 216 31 32 74 76 94 98 21
22 58 57 83 79 35 30 44 43 40 60 -5 19 -5 20 6 3 10 -18 12 -18 38 6 66 62
184 127 286 158 75 23 85 24 85 1 0 -13 -18 -25 -62 -43 -65 -25 -84 -47 -49
-56 24 -6 28 -21 6 -29 -8 -4 -15 -13 -15 -22 0 -12 -3 -13 -11 -5 -14 14
-118 -29 -132 -53 -5 -8 -12 -12 -18 -9 -5 4 -9 -11 -9 -32 0 -21 -10 -58 -21
-83 -11 -25 -22 -58 -24 -75 -2 -16 -1 -24 2 -17 2 6 9 10 14 6 5 -3 9 0 9 5
0 6 16 11 36 11 19 0 33 4 30 8 -10 17 15 83 45 116 16 19 29 39 29 45 0 15
75 87 92 89 7 1 47 11 88 22 65 18 83 19 139 10 35 -6 77 -18 92 -26 41 -21
99 -74 99 -89 0 -28 -23 -26 -53 3 -71 67 -171 90 -268 61 -39 -12 -65 -43
-31 -37 9 2 16 -3 14 -9 -1 -7 6 -13 15 -14 10 0 -7 -8 -37 -18 -103 -33 -100
-29 -98 -134 2 -109 -6 -128 -84 -203 -99 -96 -228 -174 -262 -161 -9 4 -16
16 -16 27 0 14 4 19 12 14 7 -4 8 -3 4 4 -8 13 -30 6 -91 -27 -21 -11 -42 -18
-46 -15 -5 3 -6 -3 -2 -12 4 -12 3 -15 -5 -10 -8 5 -12 0 -12 -13 0 -12 6 -21
13 -21 8 0 9 -2 1 -8 -14 -8 -25 -180 -13 -188 5 -3 9 0 9 6 0 13 68 80 81 80
17 0 20 -23 6 -53 -19 -40 -47 -172 -54 -258 -4 -50 -2 -68 8 -75 14 -8 19 -9
73 -12 19 -1 40 -15 62 -39 30 -33 39 -35 35 -10 -1 4 8 3 19 -3 14 -7 20 -7
21 0 1 5 2 14 3 19 2 20 17 24 42 11 23 -13 27 -12 36 3 5 10 15 15 21 11 7
-3 3 2 -8 11 -16 13 -18 19 -7 35 18 29 15 50 -8 50 -25 0 -25 5 -2 28 23 23
75 42 113 42 36 0 36 9 3 46 -56 63 -76 94 -70 109 3 8 11 14 17 13 7 -2 16
15 21 39 10 47 20 55 107 89 51 20 53 22 33 33 -12 6 -22 9 -22 6 0 -3 -11 6
-25 20 -14 14 -31 25 -38 25 -8 0 -7 4 2 9 9 6 22 6 32 1 9 -5 19 -6 23 -2 4
3 11 0 16 -8 6 -9 10 -10 10 -3 0 14 -64 55 -82 52 -26 -3 -38 1 -38 15 0 35
67 34 139 -3 31 -16 68 -34 83 -40 60 -23 73 -94 24 -126 -13 -9 -68 -23 -122
-33 -69 -13 -100 -22 -102 -33 -1 -8 22 -41 52 -74 30 -33 60 -72 67 -87 28
-66 -20 -106 -115 -94 l-54 6 -4 -39 c-2 -22 -1 -38 3 -35 3 2 14 -14 24 -36
22 -49 10 -84 -38 -117 -44 -30 -82 -29 -112 2 -15 17 -26 22 -30 15 -5 -8
-10 -8 -20 0 -14 12 -25 -6 -25 -40 0 -11 -13 -34 -28 -52 -49 -56 -82 -112
-82 -136 0 -13 -4 -20 -10 -17 -7 5 -79 -120 -81 -140 0 -2 -6 -20 -14 -39 -8
-20 -15 -42 -15 -50 0 -8 -6 -19 -13 -23 -8 -4 -22 -20 -32 -35 -28 -44 -77
-31 -53 14 5 11 3 30 -6 53 -9 20 -11 33 -6 30 5 -3 5 7 0 24 -4 16 -7 31 -7
33 1 2 -6 -6 -15 -17 -10 -11 -15 -27 -12 -37 5 -18 -11 -34 -21 -18 -4 6 -15
4 -29 -5 -25 -16 -49 -12 -78 13 -10 8 -18 12 -18 7 0 -14 -32 19 -41 42 -5
13 -14 23 -21 23 -9 0 -9 -3 -2 -8 19 -13 24 -41 14 -90 -5 -26 -5 -51 0 -56
13 -13 0 -36 -21 -36 -12 0 -26 13 -36 35 -9 19 -21 35 -25 35 -5 0 -7 4 -4 9
3 5 0 14 -8 20 -8 6 -24 39 -36 72 -13 33 -32 66 -43 74 -12 8 -17 20 -13 30
3 9 2 13 -4 10 -6 -3 -10 2 -10 13 0 11 -8 30 -18 43 -10 13 -23 36 -30 52 -6
15 -16 27 -22 27 -5 0 -10 6 -10 13 0 8 -12 24 -26 38 -21 20 -25 31 -23 69 3
45 7 53 42 92 15 15 26 18 52 14 23 -5 36 -2 45 9 7 9 18 14 25 11 8 -3 9 8 3
42 -4 26 -10 66 -12 90 -3 24 -19 85 -36 137 -17 52 -29 99 -25 105 16 27 45
-3 83 -85 l13 -30 15 28 c21 40 9 186 -15 188 -13 1 -13 2 2 6 38 10 15 39
-71 91 -48 28 -93 52 -100 52 -7 0 -11 4 -7 9 3 6 -3 9 -13 8 -14 -1 -17 -7
-14 -29 10 -69 -73 -33 -180 78 -40 41 -78 85 -85 97 -7 12 -12 59 -13 104 0
99 -4 109 -44 128 -47 24 -73 46 -58 52 17 6 15 33 -2 33 -8 0 -16 4 -18 10
-5 16 -117 32 -167 25 -87 -13 -175 -62 -164 -92 4 -11 0 -14 -17 -11 -33 4
-35 21 -6 55 60 71 215 108 334 80 l63 -14 -3 36 c-1 20 1 42 5 48 5 7 -4 14
-23 18 -21 5 -30 13 -30 26 0 26 31 25 126 -7z m304 -25 c0 -5 -4 -9 -10 -9
-5 0 -10 7 -10 16 0 8 5 12 10 9 6 -3 10 -10 10 -16z m277 -31 c-3 -8 -6 -5
-6 6 -1 11 2 17 5 13 3 -3 4 -12 1 -19z m-120 -110 c-3 -8 -6 -5 -6 6 -1 11 2
17 5 13 3 -3 4 -12 1 -19z m1304 -21 c-8 -8 -11 -7 -11 4 0 20 13 34 18 19 3
-7 -1 -17 -7 -23z m-1706 -506 c0 -14 -122 -62 -187 -75 -40 -7 -63 -28 -55
-50 5 -11 24 -14 84 -14 70 1 83 -2 123 -28 25 -15 49 -27 53 -26 5 1 6 -2 2
-8 -3 -5 -1 -10 5 -10 12 0 9 -25 -7 -66 -5 -13 -3 -16 10 -11 25 10 21 -20
-6 -47 -13 -13 -21 -28 -19 -34 2 -8 -8 -12 -28 -12 -22 0 -29 4 -24 13 4 6
-11 -5 -32 -25 -29 -29 -36 -40 -27 -49 9 -9 16 -5 30 19 10 18 25 32 33 32
13 -1 13 -3 -1 -13 -24 -18 -3 -33 59 -41 62 -8 84 -15 77 -26 -3 -4 3 -7 13
-6 19 1 23 -27 10 -84 -4 -19 -5 -43 -2 -53 5 -15 7 -15 20 -2 19 18 28 19 42
2 14 -17 -4 -53 -40 -80 -38 -29 -95 -15 -120 29 -18 31 -18 33 3 88 27 69 18
86 -47 86 -23 0 -55 5 -71 11 -61 23 -58 61 13 145 38 45 54 72 51 85 -3 10
-1 19 5 19 5 0 8 6 6 13 -3 6 -9 12 -14 12 -5 0 -15 4 -23 9 -8 5 -16 4 -21
-4 -4 -7 -10 -8 -13 -3 -3 5 -25 10 -48 11 -58 4 -115 35 -123 68 -8 31 14 71
47 83 12 5 51 20 87 35 69 27 135 31 135 7z m-94 -80 c-9 -15 -58 -41 -79 -41
-14 0 43 49 62 53 11 2 22 5 24 6 1 0 -2 -8 -7 -18z m2213 -73 c-16 -88 -36
-163 -47 -177 -7 -9 -8 -12 -1 -8 19 11 -51 -184 -102 -285 -81 -162 -201
-330 -297 -417 -21 -19 -36 -40 -33 -47 3 -8 0 -11 -10 -7 -10 4 -16 -5 -21
-28 -4 -19 -6 -38 -5 -42 1 -5 -2 -6 -8 -2 -12 7 -50 -3 -50 -14 0 -4 11 -14
25 -21 28 -15 33 -27 10 -27 -8 0 -12 4 -9 8 2 4 -4 13 -15 18 -26 14 -31 14
-31 -2 0 -15 -40 -18 -40 -2 0 5 -6 3 -13 -5 -14 -17 -63 -25 -71 -11 -3 5 -7
21 -8 35 -2 19 -5 22 -15 14 -19 -16 -29 19 -11 40 9 9 14 22 11 28 -2 7 6 10
22 9 14 -2 25 1 25 6 0 5 -4 9 -10 9 -21 0 -8 16 25 32 21 11 35 13 35 7 0 -6
7 -9 15 -5 9 3 15 0 15 -9 0 -9 10 -15 25 -15 14 0 25 5 25 10 0 6 9 10 19 10
23 0 74 57 65 72 -4 7 -2 8 4 4 7 -4 12 -2 12 4 0 6 4 9 9 6 12 -8 34 21 26
33 -3 6 0 8 9 5 15 -6 42 31 28 39 -4 2 -2 2 5 1 24 -6 210 284 199 311 -3 8
-29 26 -58 41 l-52 26 28 15 c20 10 26 20 23 34 -3 10 0 22 7 27 7 4 18 16 25
27 9 15 11 16 7 3 -3 -10 -1 -18 4 -18 6 0 10 -12 10 -26 0 -16 4 -23 12 -18
7 4 8 3 4 -4 -4 -6 -14 -8 -24 -5 -9 3 -14 3 -10 -2 4 -4 2 -15 -5 -23 -9 -13
-9 -14 1 -8 6 4 12 3 12 -3 0 -5 -6 -11 -12 -14 -9 -3 -7 -10 7 -21 25 -20 34
-20 40 -1 3 8 8 23 12 33 3 9 5 23 4 30 -1 6 2 12 8 12 14 0 53 110 47 132 -3
15 0 18 17 13 15 -4 18 -3 9 3 -10 7 -10 20 3 67 8 33 15 65 15 71 0 31 21 64
40 64 17 0 19 -5 14 -32z m-2810 -59 c8 -38 25 -102 38 -142 19 -62 23 -68 29
-47 6 23 7 23 8 -7 1 -26 5 -33 21 -33 21 0 28 19 8 21 -10 0 -10 2 -1 5 8 4
9 13 3 29 -13 33 10 51 32 25 9 -10 14 -21 11 -23 -5 -6 15 -44 35 -65 7 -8
11 -21 8 -28 -3 -8 -1 -14 4 -14 6 0 10 -11 10 -25 0 -14 7 -28 15 -31 8 -4
15 -17 15 -30 0 -13 5 -24 10 -24 6 0 10 -7 10 -15 0 -8 5 -15 11 -15 5 0 7
-4 4 -10 -3 -5 -1 -10 5 -10 6 0 8 -4 5 -10 -3 -5 2 -10 12 -11 10 0 13 -3 6
-6 -16 -6 0 -39 30 -65 11 -10 17 -18 13 -18 -8 0 23 -36 87 -100 26 -27 47
-53 47 -58 0 -6 16 -20 36 -32 19 -12 33 -25 30 -28 -3 -3 20 -25 52 -48 73
-56 73 -56 100 -90 27 -35 27 -38 1 -80 -12 -20 -16 -34 -9 -34 20 0 100 -40
100 -50 0 -6 7 -10 15 -10 8 0 15 -6 15 -13 0 -7 8 -19 18 -28 16 -14 20 -13
42 8 14 13 35 26 48 29 13 4 22 14 22 25 0 12 5 16 15 13 13 -5 13 -9 3 -21
-8 -10 1 -8 24 5 32 18 37 19 42 5 4 -9 9 -13 13 -10 3 4 15 1 27 -5 11 -7 28
-11 37 -10 10 2 20 -11 29 -40 7 -24 20 -50 27 -60 8 -9 13 -22 12 -30 -2 -12
2 -26 22 -76 12 -30 12 -65 -1 -57 -5 3 -10 -3 -10 -15 0 -12 4 -19 9 -15 6 3
15 -3 21 -14 13 -25 94 -62 118 -55 14 5 15 4 2 -5 -13 -9 -13 -11 0 -11 12 0
12 -2 2 -9 -11 -7 -11 -9 1 -14 19 -7 29 2 20 17 -4 6 -8 18 -10 26 -1 8 -7
16 -12 18 -6 2 -11 8 -11 13 0 6 5 7 10 4 16 -10 12 21 -5 35 -8 6 -19 9 -25
5 -7 -4 -7 1 1 13 7 12 15 19 19 17 3 -2 6 8 6 21 2 25 -11 33 -19 12 -3 -8
-6 -7 -6 4 -1 9 8 20 19 23 16 5 18 10 10 24 -5 10 -6 22 -2 26 4 5 2 5 -5 1
-7 -4 -12 0 -12 11 0 10 -3 31 -7 46 -5 23 -3 29 15 34 12 3 21 13 21 24 0 11
3 20 8 20 41 7 60 10 74 12 9 1 16 6 15 12 -1 5 6 9 16 7 11 -2 17 4 17 15 0
14 2 15 9 4 5 -8 7 -20 5 -26 -6 -14 23 -28 37 -19 5 3 9 2 8 -3 -3 -19 2 -33
12 -33 5 0 7 5 4 10 -3 6 -1 10 5 10 6 0 8 5 5 10 -3 6 -1 10 4 10 6 0 11 9
11 20 0 11 5 20 10 20 6 0 10 -4 10 -9 0 -12 42 -19 65 -11 31 11 96 -9 121
-35 12 -14 29 -26 36 -27 7 -2 19 -11 26 -21 11 -14 17 -16 28 -6 8 7 13 18
10 25 -3 8 0 11 10 7 7 -3 14 0 14 7 0 6 9 23 20 37 11 14 20 21 20 16 0 -5
-5 -14 -12 -21 -9 -9 -9 -12 -1 -12 7 0 15 5 18 10 4 6 10 8 15 5 4 -3 10 5
14 18 6 22 6 22 31 -7 14 -16 25 -33 25 -37 0 -5 11 -11 25 -15 14 -3 25 -11
25 -17 0 -6 3 -7 7 -4 3 4 12 -1 19 -11 9 -11 13 -13 14 -4 0 7 5 10 10 7 6
-4 10 6 10 22 0 15 7 37 15 47 8 10 12 22 10 26 -3 4 2 13 10 20 16 14 90 8
122 -9 10 -5 25 -12 33 -16 30 -12 60 -32 55 -37 -3 -2 17 -27 44 -55 27 -28
52 -63 55 -80 15 -66 -33 -117 -110 -115 -48 0 -51 -1 -58 -42 -3 -16 -8 -31
-10 -34 -3 -3 0 -12 7 -20 8 -10 8 -13 1 -9 -14 8 -27 -20 -17 -35 3 -7 1 -8
-5 -4 -7 4 -12 3 -12 -2 0 -6 7 -13 16 -16 8 -3 12 -10 9 -16 -3 -5 1 -10 10
-10 27 0 36 -50 36 -184 -1 -98 -5 -135 -16 -153 -9 -13 -20 -23 -26 -23 -15
0 -91 85 -83 93 3 3 -11 15 -31 27 l-35 22 -19 -23 c-11 -13 -19 -38 -19 -55
0 -17 -5 -41 -12 -53 -16 -30 -45 -23 -45 11 1 15 -3 24 -7 22 -4 -2 -11 4
-17 13 -8 14 -10 15 -11 3 0 -13 -1 -13 -10 0 -5 8 -10 10 -10 4 0 -7 -10 -14
-23 -18 -12 -3 -31 -13 -42 -23 -11 -10 -31 -19 -45 -21 -13 -1 -27 -6 -30
-10 -7 -9 -50 -11 -50 -1 0 4 -16 13 -35 19 -21 7 -50 30 -72 57 -21 25 -39
40 -41 34 -2 -6 -12 -11 -22 -11 -11 0 -20 -10 -23 -30 -4 -20 -17 -35 -39
-46 -40 -21 -144 -25 -140 -6 2 10 -2 10 -19 1 -12 -6 -19 -7 -16 -2 3 5 -7
21 -23 36 -28 27 -29 27 -39 8 -6 -11 -11 -26 -11 -34 0 -23 -28 -28 -42 -8
-20 26 -39 36 -31 14 6 -15 5 -16 -9 -3 -9 8 -14 18 -12 22 6 9 -31 29 -39 21
-3 -3 -23 -5 -44 -5 -42 1 -64 -11 -82 -46 -22 -42 -40 -27 -40 33 1 30 6 55
11 55 6 0 8 11 4 27 -12 48 -14 117 -4 137 7 14 7 16 -2 11 -9 -5 -10 -1 -6
16 5 20 3 19 -7 -4 -7 -15 -15 -26 -18 -23 -2 2 -5 -13 -7 -34 -3 -44 -22 -85
-47 -104 -20 -14 -31 -81 -15 -91 5 -3 10 -15 10 -26 0 -15 -6 -20 -22 -17
-16 2 -31 19 -49 53 -14 28 -26 54 -27 59 -1 5 -15 10 -32 11 -36 3 -60 -28
-60 -79 0 -36 -19 -53 -39 -33 -6 6 -11 20 -11 31 -1 22 -29 79 -30 61 0 -5
-8 -1 -16 10 -9 11 -14 14 -12 6 6 -19 -44 -69 -87 -87 -43 -17 -69 -18 -83
-1 -17 20 3 42 36 39 38 -4 86 35 76 61 -3 10 -12 16 -20 13 -9 -4 -9 4 3 32
8 20 12 34 8 30 -4 -4 -14 0 -23 8 -11 11 -25 14 -51 9 -44 -8 -47 -11 -32
-28 6 -8 9 -25 7 -38 -3 -13 -5 -29 -5 -35 -1 -7 -10 -14 -20 -17 -14 -3 -21
-15 -23 -43 -2 -26 -8 -40 -19 -42 -25 -5 -35 40 -38 165 -2 98 0 113 16 122
10 6 15 11 12 11 -4 0 -1 17 6 37 8 23 10 44 4 54 -4 9 -5 19 -2 23 3 3 1 6
-6 6 -7 0 -10 4 -6 9 3 5 -7 19 -22 31 -16 12 -27 24 -25 26 1 2 2 10 1 17 0
8 -2 8 -5 1 -3 -7 -13 -10 -23 -7 -10 3 -22 -1 -26 -8 -5 -8 -4 -10 3 -5 7 4
12 2 12 -3 0 -6 -5 -11 -12 -11 -6 0 -9 -3 -5 -6 11 -12 -15 -65 -31 -62 -24
5 -30 40 -31 180 -1 107 2 129 15 140 31 25 89 83 99 101 20 34 156 28 197 -9
20 -19 58 -10 58 14 0 10 -16 26 -35 36 -19 11 -35 23 -35 27 0 5 -7 6 -17 2
-13 -5 -15 -2 -11 15 4 12 2 20 -3 17 -5 -3 -23 10 -41 30 -18 19 -64 68 -102
108 -118 124 -256 322 -302 432 -8 19 -18 35 -22 35 -4 0 -8 8 -9 18 -1 9 -18
63 -38 120 -44 125 -77 274 -62 284 22 14 36 -6 51 -73z m103 -11 c-3 -7 -5
-2 -5 12 0 14 2 19 5 13 2 -7 2 -19 0 -25z m-10 -65 c-3 -10 -5 -2 -5 17 0 19
2 27 5 18 2 -10 2 -26 0 -35z m-10 -75 c-3 -8 -6 -5 -6 6 -1 11 2 17 5 13 3
-3 4 -12 1 -19z m673 -54 c0 -2 -9 0 -20 6 -11 6 -20 13 -20 16 0 2 9 0 20 -6
11 -6 20 -13 20 -16z m59 -30 c14 -12 -19 -1 -35 12 -18 14 -18 14 6 3 14 -6
27 -13 29 -15z m1717 -143 c-15 -22 -25 -44 -22 -49 3 -6 -2 -13 -11 -16 -15
-6 -15 -8 -3 -16 13 -8 12 -10 -2 -10 -17 0 -47 -40 -31 -40 4 0 0 -5 -10 -11
-18 -10 -18 -11 0 -25 17 -14 17 -14 -3 -5 -19 9 -23 7 -29 -16 -3 -15 -17
-37 -30 -49 -13 -12 -21 -25 -18 -28 4 -3 -1 -6 -9 -6 -17 0 -32 -26 -23 -40
3 -4 -3 -7 -13 -6 -9 0 -16 -5 -14 -11 1 -7 -3 -13 -9 -13 -8 0 -8 -5 1 -15
10 -12 9 -15 -6 -17 -11 0 -27 0 -37 0 -10 1 -16 -1 -14 -6 3 -4 -6 -15 -19
-25 -44 -33 -25 0 36 64 33 34 60 66 60 70 0 4 18 24 40 45 21 20 37 41 34 46
-3 4 2 11 10 14 8 3 18 16 22 27 3 12 17 37 31 55 13 17 21 32 17 32 -4 0 2
10 13 23 21 23 36 54 42 84 0 4 6 2 13 -5 8 -8 5 -21 -16 -51z m-1625 -58 c13
-16 12 -17 -3 -4 -10 7 -18 15 -18 17 0 8 8 3 21 -13z m2216 -160 c-3 -10 -5
-2 -5 17 0 19 2 27 5 18 2 -10 2 -26 0 -35z m-891 -212 c-17 -19 -62 -18 -50
1 3 5 14 6 24 3 10 -3 21 -1 25 5 3 5 9 10 12 10 3 0 -2 -9 -11 -19z m102
-146 c-3 -3 -9 2 -12 12 -6 14 -5 15 5 6 7 -7 10 -15 7 -18z m-1291 -97 c-3
-8 -6 -5 -6 6 -1 11 2 17 5 13 3 -3 4 -12 1 -19z m250 -260 c-3 -8 -6 -5 -6 6
-1 11 2 17 5 13 3 -3 4 -12 1 -19z m-1650 -880 c-2 -18 -4 -6 -4 27 0 33 2 48
4 33 2 -15 2 -42 0 -60z m1456 -175 c7 -9 5 -13 -7 -13 -11 0 -16 8 -15 28 0
15 3 21 6 12 3 -8 10 -21 16 -27z m37 11 c0 -14 -4 -23 -9 -20 -5 3 -7 15 -4
26 7 28 13 25 13 -6z m34 -16 c7 -5 5 -8 -6 -8 -13 0 -18 7 -17 28 1 21 2 22
6 7 3 -11 10 -23 17 -27z m71 17 c0 -16 -3 -20 -12 -14 -7 7 -13 5 -16 -3 -3
-7 -6 -2 -6 12 -1 18 5 26 17 27 12 1 17 -6 17 -22z m40 0 c0 -14 -6 -25 -12
-25 -7 0 -13 11 -13 25 0 14 6 25 13 25 6 0 12 -11 12 -25z m41 0 c0 -30 -20
-28 -24 3 -2 14 2 22 10 22 8 0 14 -11 14 -25z m64 0 c0 -14 -7 -20 -23 -20
-18 0 -22 5 -19 20 2 12 11 21 23 21 12 0 19 -7 19 -21z m188 0 c1 -14 -2 -25
-6 -25 -4 0 -8 11 -8 25 -2 33 11 33 14 0z m52 11 c0 -7 -7 -19 -15 -26 -13
-11 -15 -8 -15 14 0 16 5 26 15 26 8 0 15 -6 15 -14z m27 -23 c-3 -10 -5 -4
-5 12 0 17 2 24 5 18 2 -7 2 -21 0 -30z m46 29 c3 7 6 0 6 -16 1 -23 -2 -26
-13 -17 -11 9 -15 9 -19 -1 -3 -7 -6 0 -6 16 -1 23 2 26 13 17 11 -9 15 -9 19
1z m47 -11 c-7 -14 -6 -21 3 -24 6 -3 4 -6 -7 -6 -13 -1 -17 4 -13 19 3 10 0
21 -7 24 -6 2 -1 5 12 5 19 1 21 -2 12 -18z m-728 -23 c-15 -15 -26 -4 -18 18
5 13 9 15 18 6 9 -9 9 -15 0 -24z m483 12 c0 -7 -6 -15 -12 -17 -8 -3 -13 4
-13 17 0 13 5 20 13 18 6 -3 12 -11 12 -18z m22 -12 c-3 -7 -5 -2 -5 12 0 14
2 19 5 13 2 -7 2 -19 0 -25z m-480 0 c-3 -8 -6 -5 -6 6 -1 11 2 17 5 13 3 -3
4 -12 1 -19z m486 -82 c5 -14 -10 -36 -25 -36 -4 0 -8 11 -8 25 0 27 24 35 33
11z m43 -2 c-3 -8 -2 -12 4 -9 6 3 10 0 10 -7 0 -8 -9 -14 -20 -14 -13 0 -19
5 -15 14 3 7 5 18 5 23 0 5 5 9 11 9 6 0 8 -7 5 -16z m64 -6 c0 -11 -4 -17 -9
-14 -5 4 -12 0 -14 -6 -3 -7 -6 -1 -6 13 -1 16 4 26 14 26 8 0 15 -9 15 -19z
m53 14 c3 7 6 0 6 -16 1 -23 -2 -26 -13 -17 -11 9 -15 9 -19 -1 -3 -7 -6 0 -6
16 -1 23 2 26 13 17 11 -9 15 -9 19 1z m49 -18 c-3 -19 -7 -22 -13 -12 -13 20
-11 38 5 38 9 0 12 -8 8 -26z m97 17 c-2 -16 -18 -44 -18 -34 -1 7 -8 10 -16
7 -10 -4 -15 0 -15 13 0 14 7 19 25 19 14 0 25 -2 24 -5z m59 -14 c4 -20 -25
-34 -40 -19 -15 15 -1 44 19 40 10 -2 19 -11 21 -21z m36 -26 c-9 -11 -21 13
-16 32 6 22 6 22 12 -3 4 -14 6 -27 4 -29z m41 28 c-6 -33 -15 -36 -15 -6 0
15 4 27 9 27 6 0 8 -10 6 -21z m-1182 -9 c-3 -11 -7 -20 -9 -20 -2 0 -4 9 -4
20 0 11 4 20 9 20 5 0 7 -9 4 -20z m31 -10 c-6 -6 -10 -3 -10 10 0 13 4 16 10
10 7 -7 7 -13 0 -20z m42 10 c0 -11 -4 -20 -8 -20 -4 0 -8 9 -8 20 0 11 4 20
8 20 4 0 8 -9 8 -20z m30 0 c0 -12 -4 -16 -9 -11 -5 5 -6 14 -3 20 10 15 12
14 12 -9z m35 5 l9 20 -3 -20 c-2 -22 -21 -24 -23 -3 0 7 1 6 4 -2 4 -12 7
-11 13 5z m56 -17 c-3 -7 -5 -2 -5 12 0 14 2 19 5 13 2 -7 2 -19 0 -25z m43
23 c0 -9 -20 -37 -20 -29 0 3 -2 13 -5 21 -4 8 0 14 10 14 8 0 15 -3 15 -6z
m26 -11 c0 -11 -4 -20 -8 -20 -4 0 -8 9 -8 20 0 11 4 20 8 20 4 0 8 -9 8 -20z
m56 5 c0 -5 -5 -11 -11 -13 -6 -2 -11 4 -11 13 0 9 5 15 11 13 6 -2 11 -8 11
-13z m38 0 c0 -8 -4 -15 -10 -15 -5 0 -10 7 -10 15 0 8 5 15 10 15 6 0 10 -7
10 -15z m46 4 c10 -17 -13 -36 -27 -22 -12 12 -4 33 11 33 5 0 12 -5 16 -11z
m39 -9 c0 -7 -6 -15 -12 -17 -8 -3 -13 4 -13 17 0 13 5 20 13 18 6 -3 12 -11
12 -18z m35 -6 c0 -8 -4 -14 -10 -14 -5 0 -10 9 -10 21 0 11 5 17 10 14 6 -3
10 -13 10 -21z m26 6 c0 -12 -4 -16 -9 -11 -5 5 -6 14 -3 20 10 15 12 14 12
-9z m40 0 c0 -11 -4 -20 -8 -20 -4 0 -8 9 -8 20 0 11 4 20 8 20 4 0 8 -9 8
-20z m31 0 c1 -11 -2 -20 -8 -20 -5 0 -9 9 -9 20 0 11 4 20 8 20 4 0 8 -9 9
-20z m63 0 c0 -11 -4 -20 -10 -20 -5 0 -10 9 -10 20 0 11 5 20 10 20 6 0 10
-9 10 -20z m32 -2 c-2 -10 -6 -18 -7 -18 -1 0 -5 8 -7 18 -3 11 0 19 7 19 7 0
10 -8 7 -19z"/>
<path d="M2120 4461 c0 -15 6 -21 21 -21 14 0 19 5 17 17 -5 26 -38 29 -38 4z"/>
<path d="M2633 4464 c-7 -20 17 -37 34 -23 15 13 6 39 -13 39 -8 0 -17 -7 -21
-16z"/>
<path d="M1695 3667 c-5 -11 -3 -23 5 -30 10 -9 14 -9 17 1 3 6 9 10 14 7 5
-4 6 1 3 9 -3 9 -10 14 -14 11 -5 -3 -10 1 -13 7 -3 9 -7 7 -12 -5z"/>
<path d="M1806 3531 c-4 -6 0 -14 8 -17 9 -3 16 -14 16 -24 0 -11 5 -22 10
-25 6 -4 8 -10 5 -14 -2 -4 6 -23 20 -41 l24 -32 4 38 c3 32 4 28 5 -16 1 -42
-1 -51 -9 -40 -9 12 -10 12 -5 -3 3 -10 6 -20 6 -22 0 -2 17 -12 38 -21 20
-10 40 -19 44 -21 8 -4 5 18 -5 35 -5 6 -5 17 -1 24 5 7 3 8 -6 3 -10 -6 -12
-4 -7 8 3 10 3 17 -2 17 -5 0 -12 19 -16 43 l-8 42 -8 -30 c-7 -27 -8 -25 -7
15 0 66 -1 72 -11 66 -5 -4 -11 -1 -13 4 -5 15 -74 24 -82 11z"/>
<path d="M2980 3426 c0 -8 5 -18 10 -21 6 -3 10 1 10 9 0 8 -4 18 -10 21 -5 3
-10 -1 -10 -9z"/>
<path d="M2894 3366 c-34 -35 -68 -74 -77 -87 -10 -13 -17 -18 -17 -11 0 6 -5
12 -11 12 -5 0 -8 -4 -5 -9 4 -5 0 -11 -6 -14 -7 -2 2 -4 20 -5 18 0 30 3 27
9 -3 5 0 6 8 4 7 -3 24 3 36 14 13 12 28 18 34 14 6 -3 7 -1 3 5 -4 7 -1 12 7
12 34 0 77 97 50 113 -5 3 -36 -23 -69 -57z"/>
<path d="M2080 3345 c0 -8 5 -15 11 -15 5 0 7 -4 4 -10 -4 -6 1 -7 11 -3 11 4
15 2 11 -4 -4 -6 0 -14 9 -17 12 -5 15 -2 10 10 -3 8 -6 22 -6 30 0 8 -6 11
-15 8 -8 -4 -15 -1 -15 5 0 6 -4 11 -10 11 -5 0 -10 -7 -10 -15z"/>
<path d="M1871 3304 c0 -11 3 -14 6 -6 3 7 2 16 -1 19 -3 4 -6 -2 -5 -13z"/>
<path d="M2153 3285 c0 -7 6 -11 14 -8 7 3 13 6 13 8 0 2 -6 5 -13 8 -8 3 -14
-1 -14 -8z"/>
<path d="M1873 3252 c1 -13 6 -21 13 -18 7 3 15 -1 18 -9 3 -9 0 -12 -8 -9
-10 4 -12 -2 -9 -20 3 -14 9 -24 13 -21 5 3 10 -1 13 -7 3 -7 5 -2 5 12 0 33
-18 81 -28 75 -5 -3 -10 1 -13 7 -3 7 -4 3 -4 -10z"/>
<path d="M2970 3263 c0 -19 17 -24 30 -8 9 10 9 15 1 15 -6 0 -11 -6 -11 -12
0 -9 -4 -8 -10 2 -6 9 -10 10 -10 3z"/>
<path d="M3092 3257 c-7 -8 -9 -17 -6 -20 4 -3 -1 -13 -10 -22 -12 -12 -16
-13 -16 -3 0 7 -8 -2 -16 -19 -9 -18 -20 -33 -23 -33 -4 0 -16 -7 -27 -16 -10
-8 -14 -13 -7 -10 7 4 6 -4 -3 -24 -9 -17 -19 -28 -24 -25 -5 3 -11 1 -14 -4
-15 -24 17 -19 41 6 16 15 29 26 30 25 7 -5 42 15 68 40 26 24 30 35 28 69 -2
48 -6 54 -21 36z"/>
<path d="M3340 2940 c-13 -8 -13 -10 1 -10 9 0 21 -12 27 -26 9 -18 19 -24 34
-22 40 6 31 45 -12 50 -14 2 -27 6 -30 10 -3 4 -12 3 -20 -2z"/>
<path d="M2273 2660 c-1 -11 2 -18 8 -15 11 7 12 35 1 35 -4 0 -8 -9 -9 -20z"/>
<path d="M3263 2600 c-1 -14 4 -20 19 -20 20 0 21 1 3 20 -10 11 -19 20 -19
20 -1 0 -2 -9 -3 -20z"/>
<path d="M2270 2589 c0 -5 5 -9 11 -9 5 0 7 -4 4 -10 -3 -5 3 -10 14 -10 30 0
26 27 -4 32 -14 3 -25 1 -25 -3z"/>
<path d="M2285 2510 c-3 -5 -1 -10 4 -10 6 0 11 5 11 10 0 6 -2 10 -4 10 -3 0
-8 -4 -11 -10z"/>
<path d="M3125 2370 c3 -5 1 -10 -4 -10 -6 0 -11 -5 -11 -11 0 -8 5 -8 15 1
17 14 20 30 4 30 -5 0 -7 -4 -4 -10z"/>
<path d="M2616 2218 c-22 -25 -33 -92 -17 -102 6 -4 11 -2 11 5 0 7 3 9 6 6 4
-4 1 -13 -6 -22 -9 -11 -9 -15 -1 -15 7 0 10 -4 6 -9 -3 -5 3 -16 13 -23 19
-14 21 -26 10 -44 -4 -6 -5 -14 -1 -17 6 -7 53 39 53 52 0 4 7 22 16 39 17 34
12 54 -11 46 -20 -8 -29 19 -16 45 7 12 7 22 2 25 -5 4 -12 0 -14 -6 -4 -9 -6
-7 -6 3 -2 31 -26 40 -45 17z"/>
<path d="M2320 2210 l-21 -21 21 -26 c21 -27 13 -53 -17 -53 -11 0 -11 -4 -3
-20 6 -11 8 -25 5 -30 -3 -6 -1 -10 4 -10 6 0 11 -8 11 -17 1 -18 30 -64 30
-47 0 5 4 2 9 -6 7 -9 9 -2 7 23 -2 21 1 40 6 43 5 3 7 12 4 20 -3 8 -2 14 2
14 4 0 12 21 19 48 10 45 10 48 -18 75 -34 32 -34 32 -59 7z"/>
<path d="M3307 1939 c7 -7 15 -10 18 -7 3 3 -2 9 -12 12 -14 6 -15 5 -6 -5z"/>
<path d="M1235 2550 c5 -15 2 -26 -6 -32 -11 -8 -10 -9 3 -4 10 3 20 1 23 -4
4 -6 -1 -10 -10 -10 -24 0 -13 -24 13 -28 16 -2 20 2 19 17 -1 11 -7 23 -15
26 -8 3 -12 11 -9 18 2 6 -2 18 -10 26 -13 12 -14 11 -8 -9z"/>
<path d="M1270 2440 c0 -5 4 -10 9 -10 6 0 13 5 16 10 3 6 -1 10 -9 10 -9 0
-16 -4 -16 -10z"/>
<path d="M1320 2381 c0 -5 -6 -11 -12 -14 -7 -2 -5 -3 5 -2 9 2 17 -1 17 -6 0
-5 -5 -9 -11 -9 -6 0 -7 -5 -2 -12 4 -7 8 -20 10 -28 1 -8 7 -16 12 -18 6 -2
11 -10 11 -17 0 -7 14 -20 30 -29 17 -8 28 -10 25 -5 -4 5 -8 17 -10 26 -8 42
-11 49 -27 64 -10 9 -18 20 -18 23 0 4 -7 14 -15 22 -8 9 -15 11 -15 5z"/>
<path d="M1413 2205 c0 -8 4 -12 9 -9 5 3 6 10 3 15 -9 13 -12 11 -12 -6z"/>
<path d="M2601 1587 c-27 -19 -31 -27 -26 -52 3 -16 11 -33 18 -37 9 -6 9 -10
-3 -19 -12 -8 -10 -9 8 -4 21 6 22 5 14 -12 -12 -21 -5 -36 19 -45 39 -15 55
123 21 167 l-19 24 -32 -22z m40 -90 c-10 -9 -11 -8 -5 6 3 10 9 15 12 12 3
-3 0 -11 -7 -18z"/>
<path d="M3506 1561 c-4 -5 -2 -12 4 -16 6 -4 8 -10 5 -15 -3 -5 0 -12 6 -16
7 -4 9 -3 6 3 -4 6 0 13 8 17 8 3 15 11 15 17 0 7 -3 9 -7 6 -3 -4 -12 -2 -19
4 -8 6 -14 6 -18 0z"/>
<path d="M2300 1506 c0 -8 4 -17 9 -20 5 -4 7 3 4 14 -6 23 -13 26 -13 6z"/>
<path d="M2420 1326 c0 -9 5 -16 10 -16 6 0 10 4 10 9 0 6 -4 13 -10 16 -5 3
-10 -1 -10 -9z"/>
<path d="M2766 1327 c3 -10 1 -17 -5 -17 -6 0 -11 -9 -11 -20 0 -12 5 -17 13
-14 14 5 17 47 4 60 -4 5 -5 1 -1 -9z"/>
<path d="M2836 1314 c-10 -26 -7 -30 24 -30 16 0 32 6 35 13 2 8 1 12 -4 9 -5
-3 -11 1 -15 9 -7 20 -32 19 -40 -1z"/>
<path d="M3001 1069 c-1 -9 -11 -19 -24 -23 -35 -8 -29 -65 7 -66 6 0 1 7 -10
15 -10 8 -14 15 -9 14 25 -3 35 3 49 31 8 17 11 28 6 25 -4 -3 -11 1 -13 7 -4
8 -6 7 -6 -3z"/>
<path d="M2677 1006 c-3 -8 1 -20 9 -26 10 -9 14 -9 14 -1 0 6 -4 11 -10 11
-5 0 -7 7 -4 15 4 8 4 15 1 15 -3 0 -7 -6 -10 -14z"/>
<path d="M3395 2070 c-3 -5 -1 -10 4 -10 6 0 11 5 11 10 0 6 -2 10 -4 10 -3 0
-8 -4 -11 -10z"/>
<path d="M2630 350 c0 -5 5 -10 11 -10 5 0 7 5 4 10 -3 6 -8 10 -11 10 -2 0
-4 -4 -4 -10z"/>
<path d="M2982 349 c2 -6 8 -10 13 -10 5 0 11 4 13 10 2 6 -4 11 -13 11 -9 0
-15 -5 -13 -11z"/>
<path d="M2290 340 c0 -5 5 -10 10 -10 6 0 10 5 10 10 0 6 -4 10 -10 10 -5 0
-10 -4 -10 -10z"/>
</g>
</svg>
